<?xml version="1.0" encoding="UTF-8"?>
<svg id="Layer_1" data-name="Layer 1" xmlns="http://www.w3.org/2000/svg" xmlns:xlink="http://www.w3.org/1999/xlink" viewBox="0 0 40 40">
  <defs>
    <style>
      .cls-1 {
        fill: url(#linear-gradient);
      }

      .cls-1, .cls-2, .cls-3, .cls-4, .cls-5, .cls-6, .cls-7, .cls-8 {
        stroke-width: 0px;
      }

      .cls-2 {
        fill: #7baa50;
      }

      .cls-3 {
        fill: #e7ce12;
      }

      .cls-4 {
        fill: #81b354;
      }

      .cls-5 {
        fill: #fff;
      }

      .cls-6 {
        fill: #bc332c;
      }

      .cls-7 {
        fill: #f4d911;
      }

      .cls-8 {
        fill: #c6352e;
      }
    </style>
    <linearGradient id="linear-gradient" x1="-1278.02" y1="-1073.53" x2="-1278.02" y2="-1071.16" gradientTransform="translate(7323.57 6148.23) scale(5.71)" gradientUnits="userSpaceOnUse">
      <stop offset="0" stop-color="#a2c0e6"/>
      <stop offset="1" stop-color="#406cb1"/>
    </linearGradient>
  </defs>
  <path class="cls-8" d="M19.95,1s11.2-.5,17.14,10.71h-18.09s-3.42-.11-6.33,4.02c-.84,1.73-1.74,3.52-.73,7.03-1.46-2.45-7.73-13.34-7.73-13.34,0,0,4.43-7.98,15.74-8.43Z"/>
  <path class="cls-7" d="M36.51,29.48s-5.17,9.92-17.88,9.43c1.57-2.71,9.05-15.61,9.05-15.61,0,0,1.81-2.89-.33-7.47-1.08-1.59-2.19-3.26-5.75-4.14,2.86-.03,15.46,0,15.46,0,0,0,4.72,7.81-.55,17.79h0Z"/>
  <path class="cls-4" d="M3.47,29.56s-6.04-9.42.75-20.14c1.57,2.71,9.04,15.61,9.04,15.61,0,0,1.61,3,6.66,3.45,1.92-.14,3.92-.26,6.48-2.89-1.41,2.48-7.73,13.34-7.73,13.34,0,0-9.15.17-15.19-9.37Z"/>
  <path class="cls-2" d="M18.62,39l2.54-10.58s2.8-.22,5.14-2.78c-1.46,2.55-7.69,13.36-7.69,13.36h0Z"/>
  <path class="cls-5" d="M11.43,20.12c0-4.66,3.79-8.44,8.48-8.44s8.48,3.78,8.48,8.44-3.79,8.44-8.48,8.44-8.48-3.78-8.48-8.44h0Z"/>
  <path class="cls-1" d="M12.85,20.12c0-3.88,3.16-7.03,7.06-7.03s7.06,3.15,7.06,7.03-3.16,7.03-7.06,7.03c-3.9,0-7.06-3.15-7.06-7.03h0Z"/>
  <path class="cls-3" d="M37.05,11.69l-10.48,3.06s-1.58-2.31-4.98-3.06c2.95,0,15.46,0,15.46,0h0Z"/>
  <path class="cls-6" d="M11.74,22.39c-1.47-2.54-7.53-12.96-7.53-12.96l7.76,7.65s-.8,1.63-.5,3.97l.26,1.34h0Z"/>
</svg>