<?xml version="1.0" encoding="UTF-8"?>
<svg xmlns="http://www.w3.org/2000/svg" viewBox="0 0 40 40">
  <defs>
    <style>
      .cls-1 {
        fill: #510f17;
      }

      .cls-1, .cls-2 {
        stroke-width: 0px;
      }

      .cls-2 {
        fill: #dbdcdd;
      }
    </style>
  </defs>
  <g id="Layer_2" data-name="Layer 2">
    <path class="cls-2" d="M0,0h40v40H0V0Z"/>
  </g>
  <g id="Layer_1" data-name="Layer 1">
    <path class="cls-1" d="M19.94,33.33c.49.63.78,1.43.78,2.29,0,.95-.34,1.8-.91,2.45-.63.58-1.48.93-2.41.93-1.98,0-3.59-1.64-3.59-3.66,0-1.15.51-2.16,1.31-2.83l2.09-2.08,2.72,2.9M8.71,14.18c-.87.76-1.37,1.77-1.37,2.99s.51,2.23,1.31,2.92l12.05,12.94c.53.65.82,1.49.82,2.4,0,1-.36,1.88-.95,2.58l11.12-11.99c.59-.69.97-1.58.97-2.58,0-.84-.25-1.62-.7-2.25l.02-.02-.15-.15c-.19-.24-.4-.45-.61-.63l-8.25-9.39-8.59,8.79c-.08.09-.17.15-.36.15-.13,0-.44-.11-.55-.19-.19-.19-.19-.65,0-.87.57-.63.89-1.43.89-2.27,0-1.23-.68-2.32-1.65-2.9-.49-.24-1.03-.37-1.6-.37s-1.22.15-1.65.39c-.42.19-.76.45-.76.45M25.11,7.6l.23-.24c.59-.67.95-1.58.95-2.55,0-2.1-1.65-3.81-3.69-3.81-1.16,0-2.17.54-2.85,1.41l-10.72,11.06c.63-.54,1.46-.87,2.34-.87,2.05,0,3.69,1.71,3.69,3.81,0,1.02-.38,1.93-.99,2.62l11.03-11.43"
    />
  </g>
</svg>