<?xml version="1.0" encoding="UTF-8"?>
<svg id="Layer_1" data-name="Layer 1" xmlns="http://www.w3.org/2000/svg" viewBox="0 0 40 40">
  <defs>
    <style>
      .cls-1 {
        stroke-width: 0px;
      }
    </style>
  </defs>
  <path class="cls-1" d="M20,1.5c10.54,0,19,8.46,19,19,0,8.12-5.18,15.37-12.95,17.96-.86.17-1.38-.35-1.38-.86v-5.18c0-1.73-.52-2.94-1.21-3.45,4.15-.52,8.64-2.07,8.64-9.33,0-2.07-.69-3.8-1.9-5.18.17-.52.86-2.42-.17-5.01,0,0-1.55-.52-5.18,1.9-1.55-.52-3.11-.69-4.84-.69s-3.11.17-4.66.69c-3.63-2.42-5.18-1.9-5.18-1.9-1.21,2.42-.52,4.49-.35,4.84-1.21,1.38-1.9,3.11-1.9,5.18,0,7.25,4.49,8.98,8.64,9.33-.52.52-1.04,1.38-1.21,2.59-1.04.52-3.8,1.38-5.53-1.55-.35-.52-1.38-1.9-2.94-1.9s-.69.86,0,1.21c.86.52,1.73,2.07,1.9,2.76.35,1.04,1.55,3.11,6.39,2.25v3.45c0,.52-.35,1.04-1.38.86C6.18,35.87,1,28.62,1,20.5,1,9.96,9.46,1.5,20,1.5Z"/>
</svg>