<?xml version="1.0" encoding="UTF-8"?>
<svg id="Layer_1" data-name="Layer 1" xmlns="http://www.w3.org/2000/svg" xmlns:xlink="http://www.w3.org/1999/xlink" viewBox="0 0 40 40">
  <defs>
    <style>
      .cls-1, .cls-2 {
        stroke-width: 0px;
      }

      .cls-2 {
        fill: none;
      }

      .cls-3 {
        clip-path: url(#clippath);
      }
    </style>
    <clipPath id="clippath">
      <rect class="cls-2" width="40" height="40"/>
    </clipPath>
  </defs>
  <g class="cls-3">
    <g>
      <path class="cls-1" d="M23.67,19.8c-.42.24-.82.53-1.2.84l-2.88-1.23-2.28,3.95,2.51,1.88c-.18.96-.18,1.95,0,2.91l-2.51,1.88,2.28,3.95,2.88-1.23c.74.64,1.6,1.13,2.52,1.46l.37,3.11h4.57s.37-3.11.37-3.11c.92-.33,1.78-.82,2.52-1.46l2.88,1.23,2.28-3.95-2.51-1.88c.18-.96.18-1.95,0-2.91l2.51-1.88-2.28-3.95-2.88,1.23c-.74-.64-1.6-1.13-2.52-1.46l-.37-3.11h-4.57s-.37,3.11-.37,3.11c-.46.16-.91.37-1.33.61ZM25.36,22.73c.79-.45,1.69-.66,2.59-.6.91.06,1.77.39,2.49.94.72.55,1.26,1.31,1.55,2.17.29.86.32,1.79.09,2.66-.23.88-.72,1.66-1.41,2.26-.68.6-1.53.98-2.43,1.1-.9.12-1.81-.03-2.63-.43-.81-.4-1.49-1.04-1.94-1.82-.61-1.05-.77-2.31-.46-3.48.32-1.18,1.08-2.18,2.14-2.79Z"/>
      <path class="cls-1" d="M11.74,5.69c-.34.2-.67.43-.97.69l-2.34-1-1.86,3.21,2.04,1.53c-.15.78-.15,1.59,0,2.37l-2.04,1.53,1.86,3.21,2.34-1c.61.52,1.3.92,2.05,1.18l.3,2.53h3.71s.3-2.53.3-2.53c.75-.27,1.45-.67,2.05-1.18l2.34,1,1.86-3.21-2.04-1.53c.15-.78.15-1.59,0-2.37l2.04-1.53-1.86-3.21-2.34,1c-.61-.52-1.3-.92-2.05-1.18l-.3-2.53h-3.71s-.3,2.53-.3,2.53c-.37.13-.74.3-1.08.5ZM13.12,8.08c.64-.37,1.37-.54,2.11-.49.74.05,1.44.31,2.03.76.59.45,1.02,1.06,1.26,1.76.24.7.26,1.45.07,2.17-.19.71-.59,1.35-1.14,1.84-.55.49-1.24.8-1.97.89-.73.1-1.48-.03-2.14-.35-.66-.33-1.21-.84-1.58-1.48-.49-.86-.63-1.88-.37-2.83.26-.96.88-1.77,1.74-2.27Z"/>
      <path class="cls-1" d="M6.24,22.56c-.28.16-.55.35-.8.56l-1.92-.82-1.52,2.63,1.67,1.25c-.12.64-.12,1.3,0,1.94l-1.67,1.25,1.52,2.63,1.92-.82c.5.42,1.07.75,1.68.97l.25,2.07h3.04s.25-2.07.25-2.07c.61-.22,1.18-.55,1.68-.97l1.92.82,1.52-2.63-1.67-1.25c.12-.64.12-1.3,0-1.94l1.67-1.25-1.52-2.63-1.92.82c-.5-.42-1.07-.75-1.68-.97l-.25-2.07h-3.04s-.25,2.07-.25,2.07c-.31.11-.6.25-.88.41ZM7.36,24.51c.52-.3,1.12-.44,1.73-.4.6.04,1.18.26,1.66.62.48.37.84.87,1.03,1.44.19.57.21,1.19.06,1.77-.16.58-.48,1.11-.94,1.51-.45.4-1.02.65-1.62.73-.6.08-1.21-.02-1.75-.29-.54-.27-.99-.69-1.29-1.21-.41-.7-.51-1.54-.31-2.32.21-.78.72-1.45,1.42-1.85Z"/>
    </g>
  </g>
</svg>