<?xml version="1.0" encoding="UTF-8"?>
<svg id="Layer_1" data-name="Layer 1" xmlns="http://www.w3.org/2000/svg" xmlns:xlink="http://www.w3.org/1999/xlink" viewBox="0 0 40 40">
  <defs>
    <style>
      .cls-1, .cls-2 {
        stroke-width: 0px;
      }

      .cls-2 {
        fill: none;
      }

      .cls-3 {
        clip-path: url(#clippath-1);
      }
    </style>
    <clipPath id="clippath-1">
      <rect class="cls-2" width="40" height="40"/>
    </clipPath>
  </defs>
  <g class="cls-3">
    <path class="cls-1" d="M30.8,32.6c0,1.43-.57,2.81-1.58,3.82-1.01,1.01-2.39,1.58-3.82,1.58h-10.8c-1.43,0-2.81-.57-3.82-1.58-1.01-1.01-1.58-2.39-1.58-3.82v-1.56c-2.17-1.15-3.99-2.86-5.26-4.97-1.27-2.1-1.94-4.52-1.94-6.97v-3.6c0-3.58,1.42-7.01,3.95-9.55,2.53-2.53,5.97-3.95,9.55-3.95h9c3.58,0,7.01,1.42,9.55,3.95,2.53,2.53,3.95,5.97,3.95,9.55v3.6c0,2.46-.67,4.87-1.94,6.97-1.27,2.1-3.09,3.82-5.26,4.97v1.56ZM12.8,21.8c.95,0,1.87-.38,2.55-1.05.68-.67,1.05-1.59,1.05-2.55s-.38-1.87-1.05-2.55c-.68-.68-1.59-1.05-2.55-1.05s-1.87.38-2.55,1.05-1.05,1.59-1.05,2.55.38,1.87,1.05,2.55c.68.68,1.59,1.05,2.55,1.05ZM27.2,21.8c.95,0,1.87-.38,2.55-1.05.68-.67,1.05-1.59,1.05-2.55s-.38-1.87-1.05-2.55c-.68-.68-1.59-1.05-2.55-1.05s-1.87.38-2.55,1.05c-.68.68-1.05,1.59-1.05,2.55s.38,1.87,1.05,2.55c.68.68,1.59,1.05,2.55,1.05ZM20,29c-.48,0-.94.19-1.27.53-.34.34-.53.8-.53,1.27v3.6c0,.48.19.94.53,1.27.34.34.8.53,1.27.53s.94-.19,1.27-.53c.34-.34.53-.8.53-1.27v-3.6c0-.48-.19-.94-.53-1.27-.34-.34-.8-.53-1.27-.53Z"/>
  </g>
</svg>