<?xml version="1.0" encoding="utf-8"?>
<!-- Generator: Adobe Illustrator 28.2.0, SVG Export Plug-In . SVG Version: 6.00 Build 0)  -->
<svg version="1.1" id="Layer_1" xmlns="http://www.w3.org/2000/svg" xmlns:xlink="http://www.w3.org/1999/xlink" x="0px" y="0px"
	 width="40px" height="40px" viewBox="0 0 40 40" style="enable-background:new 0 0 40 40;" xml:space="preserve">
<path d="M-35.4,4.2c2.1,0,4.2,0.4,6.1,1.2c1.9,0.8,3.7,2,5.2,3.5h-6.6v3.2h8.1c0.8,0,1.5-0.3,2.1-0.9c0.5-0.6,0.9-1.3,0.9-2.1V1
	h-3.2v4.8c-2.7-2.4-6.1-4.1-9.7-4.6c-3.6-0.6-7.3-0.1-10.7,1.4c-3.3,1.5-6.2,3.9-8.2,7s-3.1,6.7-3.1,10.3h3.2
	c0-4.2,1.7-8.2,4.6-11.2C-43.6,5.8-39.6,4.2-35.4,4.2L-35.4,4.2z"/>
<path d="M-19.5,20c0,3.1-0.9,6.2-2.7,8.8s-4.2,4.6-7.2,5.8c-2.9,1.2-6.1,1.5-9.2,0.8c-3.1-0.6-5.9-2.2-8.1-4.4h6.6v-3.2h-8.1
	c-0.8,0-1.5,0.3-2.1,0.9c-0.5,0.5-0.9,1.3-0.9,2.1V39h3.2v-4.8c2.7,2.4,6.1,4,9.7,4.6c3.6,0.6,7.3,0.1,10.7-1.4s6.2-3.9,8.2-7
	s3.1-6.7,3.1-10.3H-19.5L-19.5,20z"/>
<g>
	<path d="M20,4.2L20,4.2c2.1,0,4.2,0.4,6.1,1.2c1.9,0.8,3.7,2,5.2,3.5h-5.6v3.2h7.2c0.8,0,1.5-0.3,2.1-0.9c0.5-0.5,0.9-1.3,0.9-2.1
		V1h-3.2v4.8c-2.7-2.4-6.1-4.1-9.7-4.6c-3.6-0.6-7.3-0.1-10.7,1.4c-3.4,1.5-6.2,3.9-8.2,7C2.1,12.8,1,16.3,1,20h3.2
		c0-4.2,1.7-8.2,4.6-11.2C11.8,5.8,15.8,4.2,20,4.2z"/>
	<path d="M35.8,20L35.8,20c0,3.1-1,6.2-2.7,8.8c-1.8,2.6-4.2,4.6-7.2,5.8c-2.9,1.2-6.1,1.5-9.2,0.9c-3.1-0.6-5.9-2.2-8.1-4.4h5.8
		v-3.2H7.1c-0.8,0-1.5,0.3-2.1,0.9c-0.5,0.6-0.9,1.3-0.9,2.1V39h3.2v-4.8c2.7,2.4,6.1,4.1,9.7,4.6c3.6,0.6,7.3,0.1,10.7-1.4
		c3.4-1.5,6.2-3.9,8.2-7c2-3.1,3.1-6.7,3.1-10.3H35.8z"/>
	<path d="M19.7,26.7c-0.5,0-0.9,0.1-1.1,0.3c-0.2,0.2-0.3,0.6-0.3,1.1v1.6c0,0.5,0.1,0.9,0.3,1.1c0.2,0.2,0.6,0.3,1.1,0.3h1
		c0.5,0,0.9-0.1,1.1-0.3c0.2-0.2,0.3-0.6,0.3-1.1v-1.6c0-0.5-0.1-0.9-0.3-1.1c-0.2-0.2-0.6-0.3-1.1-0.3H19.7z"/>
	<polygon points="22.2,8.9 18.1,8.9 18.1,18 18.6,24.2 21.8,24.2 22.2,18 	"/>
</g>
</svg>
