<?xml version="1.0" encoding="UTF-8"?>
<svg id="Layer_2" data-name="Layer 2" xmlns="http://www.w3.org/2000/svg" viewBox="0 0 40 40">
    <defs>
        <style>
            .cls-1 {
            stroke-width: 0px;
            }
        </style>
    </defs>
    <path d="M10.99,7.14c3.53-2.29,7.82-3.08,11.93-2.21,2.06.44,4.01,1.29,5.75,2.5,1.73,1.2,3.21,2.74,4.34,4.52l-4.88-1.04-.66,3.1,6.44,1.37c.76.16,1.56.01,2.22-.41.66-.42,1.12-1.09,1.28-1.86l1.6-7.51-3.1-.66-.91,4.28c-2.17-2.97-5.15-5.24-8.58-6.55-3.43-1.31-7.17-1.6-10.76-.83-3.59.77-6.89,2.56-9.49,5.16C3.56,9.59,1.77,12.88,1,16.48l3.1.66c.88-4.11,3.36-7.71,6.89-10Z"
          fill="currentColor"/>
    <path d="M4.03,25.94h4.28v7.85c0,.64-.19,1.15-.56,1.51-.38.37-.89.55-1.52.55s-1.15-.19-1.52-.57c-.38-.38-.56-.9-.56-1.54H1c0,1.48.47,2.65,1.41,3.52.94.87,2.21,1.31,3.81,1.31s2.89-.43,3.82-1.29c.93-.86,1.4-2.02,1.4-3.5v-10.67h-7.42v2.82Z"
          fill="currentColor"/>
    <path d="M21.17,29.35l-1.53-.36c-.52-.11-.91-.32-1.18-.64-.27-.31-.41-.67-.41-1.08,0-.54.16-.95.48-1.23.32-.28.78-.42,1.38-.42.64,0,1.13.14,1.47.42.34.28.51.66.51,1.15h3.13c0-1.31-.46-2.35-1.37-3.12-.91-.77-2.15-1.16-3.71-1.16s-2.77.4-3.68,1.2c-.9.8-1.36,1.87-1.36,3.21,0,1.2.36,2.21,1.08,3.04.72.83,1.72,1.4,3.02,1.7l1.55.36c.5.11.89.33,1.17.65.28.32.42.7.42,1.15,0,.52-.19.92-.55,1.21-.37.29-.88.44-1.54.44s-1.22-.15-1.62-.45c-.4-.3-.6-.71-.6-1.22h-3.13c0,.89.21,1.66.65,2.32.43.66,1.05,1.16,1.84,1.53.79.36,1.73.54,2.8.54s2-.19,2.79-.56c.79-.38,1.4-.9,1.84-1.59.44-.68.66-1.47.66-2.36,0-1.24-.35-2.26-1.04-3.06-.7-.8-1.72-1.35-3.07-1.66Z"
          fill="currentColor"/>
    <path d="M38.73,23.12h-3.36l-1.63,3.34c-.14.31-.26.58-.35.83-.1.25-.16.43-.19.54-.03-.11-.09-.29-.2-.54-.1-.25-.23-.53-.39-.83l-1.59-3.34h-3.45l3.82,7.37-4.09,7.88h3.36l1.84-3.76c.15-.31.28-.59.38-.86.1-.26.17-.47.21-.61.05.14.14.34.25.61.11.27.24.55.38.86l1.84,3.76h3.45l-4.09-7.88,3.82-7.37Z"
          fill="currentColor"/>
</svg>