<?xml version="1.0" encoding="UTF-8"?>
<svg id="Layer_1" data-name="Layer 1" xmlns="http://www.w3.org/2000/svg" viewBox="0 0 40 40">
  <defs>
    <style>
      .cls-1 {
        stroke-width: 0px;
      }
    </style>
  </defs>
  <g>
    <path class="cls-1" d="M23.24,4.79c2.02.43,3.94,1.27,5.63,2.45,1.7,1.18,3.14,2.69,4.25,4.43l-4.78-1.02-.65,3.04,6.31,1.34c.75.16,1.53.01,2.17-.4.64-.42,1.09-1.07,1.25-1.82l1.57-7.36-3.04-.65-.89,4.2c-2.12-2.91-5.05-5.14-8.41-6.42-3.36-1.28-7.03-1.57-10.55-.82s-6.75,2.51-9.3,5.05c-2.55,2.55-4.3,5.78-5.05,9.3l3.04.65c.86-4.03,3.29-7.55,6.75-9.8,3.46-2.24,7.67-3.02,11.7-2.17Z"/>
    <path class="cls-1" d="M35.21,23.24c-.64,3.02-2.17,5.78-4.39,7.93-2.22,2.15-5.03,3.59-8.07,4.13-3.04.55-6.17.17-9-1.07-2.83-1.24-5.22-3.3-6.88-5.9l4.52.96.65-3.04-6.04-1.29c-.75-.16-1.53-.01-2.17.4-.64.42-1.09,1.07-1.25,1.82l-1.57,7.37,3.04.65.9-4.2c2.12,2.91,5.05,5.14,8.41,6.42,3.36,1.28,7.03,1.57,10.55.82,3.52-.75,6.75-2.51,9.3-5.05,2.55-2.55,4.3-5.78,5.05-9.3l-3.04-.65Z"/>
  </g>
  <path class="cls-1" d="M22.17,8.87v7.2l-.44,5.49h-3.46l-.44-5.49v-7.2h4.35ZM20.52,26.63c.57,0,.97.11,1.2.34.23.23.34.63.34,1.2v1.42c0,.57-.11.97-.34,1.2-.23.23-.63.34-1.2.34h-1.01c-.59,0-1-.11-1.21-.34s-.33-.63-.33-1.2v-1.42c0-.57.11-.97.33-1.2.22-.23.62-.34,1.21-.34h1.01Z"/>
</svg>