<?xml version="1.0" encoding="UTF-8"?>
<svg id="Layer_1" data-name="Layer 1" xmlns="http://www.w3.org/2000/svg" viewBox="0 0 40 40">
  <defs>
    <style>
      .cls-1 {
        stroke-width: 0px;
      }
    </style>
  </defs>
  <path class="cls-1" d="M18.22,5.75c-.35-1.36-1.14-2.57-2.25-3.43-1.11-.86-2.47-1.33-3.88-1.33s-2.77.47-3.88,1.33c-1.11.86-1.9,2.07-2.25,3.43H1.01v3.17h4.95c.35,1.36,1.14,2.57,2.25,3.43,1.11.86,2.47,1.33,3.88,1.33s2.77-.47,3.88-1.33c1.11-.86,1.9-2.07,2.25-3.43h20.78v-3.17h-20.78Z"/>
  <path class="cls-1" d="M27.91,13.67c-1.4,0-2.77.47-3.88,1.33s-1.9,2.06-2.25,3.42H1.01v3.17h20.78c.35,1.36,1.14,2.57,2.25,3.43,1.11.86,2.47,1.33,3.88,1.33s2.77-.47,3.88-1.33c1.11-.86,1.9-2.07,2.25-3.43h4.95v-3.17h-4.95c-.35-1.36-1.14-2.56-2.25-3.42s-2.47-1.33-3.88-1.33Z"/>
  <path class="cls-1" d="M12.09,26.33c-1.4,0-2.77.47-3.88,1.33-1.11.86-1.9,2.06-2.25,3.42H1.01v3.17h4.95c.35,1.36,1.14,2.57,2.25,3.43,1.11.86,2.47,1.33,3.88,1.33s2.77-.47,3.88-1.33c1.11-.86,1.9-2.07,2.25-3.43h20.78v-3.17h-20.78c-.35-1.36-1.14-2.56-2.25-3.42-1.11-.86-2.47-1.33-3.88-1.33Z"/>
</svg>