<?xml version="1.0" encoding="UTF-8"?>
<svg id="Layer_1" data-name="Layer 1" xmlns="http://www.w3.org/2000/svg" viewBox="0 0 40 40">
  <defs>
    <style>
      .cls-1 {
        stroke-width: 0px;
      }
    </style>
  </defs>
  <path class="cls-1" d="M34.25,20c0-.87-.08-1.74-.24-2.6l4.82-2.78-4.75-8.23-4.82,2.78c-1.33-1.14-2.86-2.02-4.51-2.61V1.01h-9.5v5.56c-1.65.58-3.18,1.47-4.51,2.61l-4.82-2.78L1.18,14.62l4.82,2.78c-.32,1.72-.32,3.49,0,5.21l-4.82,2.78,4.75,8.23,4.82-2.78c1.33,1.14,2.86,2.02,4.51,2.6v5.56h9.5v-5.56c1.65-.58,3.18-1.47,4.51-2.61l4.82,2.78,4.75-8.23-4.82-2.78c.16-.86.24-1.73.24-2.6ZM24.75,20c0,.94-.28,1.86-.8,2.64-.52.78-1.26,1.39-2.13,1.75-.87.36-1.82.45-2.74.27-.92-.18-1.77-.64-2.43-1.3-.66-.66-1.12-1.51-1.3-2.43-.18-.92-.09-1.88.27-2.74.36-.87.97-1.61,1.75-2.13.78-.52,1.7-.8,2.64-.8,1.26,0,2.47.5,3.36,1.39.89.89,1.39,2.1,1.39,3.36Z"/>
</svg>