<?xml version="1.0" encoding="iso-8859-1"?>
<!-- Generator: Adobe Illustrator 16.0.0, SVG Export Plug-In . SVG Version: 6.00 Build 0)  -->
<!DOCTYPE svg PUBLIC "-//W3C//DTD SVG 1.1//EN" "http://www.w3.org/Graphics/SVG/1.1/DTD/svg11.dtd">
<svg version="1.1" id="Layer_1" xmlns="http://www.w3.org/2000/svg" xmlns:xlink="http://www.w3.org/1999/xlink" x="0px" y="0px"
	 width="595.279px" height="580.398px" viewBox="0 130.746 595.279 580.398"
	 style="enable-background:new 0 130.746 595.279 580.398;" xml:space="preserve">
<g>
	<path style="fill:#DBDCDD;" d="M0,130.746H595.28v580.398H0V130.746z"/>
	<path style="fill:#510F17;" d="M296.896,573.733c5.705,7.193,9.178,16.37,9.178,26.292c0,10.913-3.969,20.587-10.666,28.027
		c-7.44,6.697-17.362,10.666-28.275,10.666c-23.315,0-42.166-18.851-42.166-41.918c0-13.146,5.953-24.803,15.378-32.492
		l24.556-23.812L296.896,573.733 M164.943,354.224c-10.17,8.681-16.123,20.339-16.123,34.229c0,13.394,5.953,25.547,15.379,33.485
		l141.626,148.324c6.201,7.44,9.674,17.114,9.674,27.531c0,11.409-4.217,21.579-11.161,29.516l130.713-137.41
		c6.945-7.938,11.41-18.106,11.41-29.516c0-9.674-2.977-18.603-8.186-25.796l0.248-0.248l-1.736-1.736
		c-2.232-2.729-4.712-5.208-7.192-7.192l-96.981-107.647L231.663,418.465c-0.992,0.992-1.984,1.736-4.217,1.736
		c-1.488,0-5.209-1.24-6.448-2.232c-2.232-2.232-2.232-7.441,0-9.921c6.696-7.193,10.417-16.37,10.417-26.043
		c0-14.138-7.938-26.54-19.347-33.236c-5.705-2.729-12.153-4.217-18.851-4.217c-6.945,0-14.386,1.736-19.347,4.465
		C168.91,351.248,164.943,354.224,164.943,354.224 M357.664,278.822c0.744-0.744,2.729-2.729,2.729-2.729
		c6.944-7.689,11.161-18.106,11.161-29.268c0-24.059-19.347-43.654-43.406-43.654c-13.642,0-25.547,6.201-33.484,16.122
		L168.662,346.039c7.441-6.201,17.114-9.921,27.532-9.921c24.06,0,43.405,19.595,43.405,43.654c0,11.658-4.464,22.075-11.657,30.012
		L357.664,278.822"/>
</g>
</svg>
